<?xml version="1.0" encoding="UTF-8"?><svg id="Ebene_2" xmlns="http://www.w3.org/2000/svg" viewBox="0 0 916.1 398.82"><defs><style>.cls-1{fill:#f15a24;}.cls-2{fill:#0a0b1c;}</style></defs><g id="Ebene_1-2"><g><path class="cls-2" d="M298.66,0V20.88c0,97.43-24.41,189.58-68.76,259.42-7.2,11.36-14.85,21.97-22.86,31.78-2.61,3.22-5.26,6.35-7.98,9.38-11.99,13.49-24.72,25.31-38.09,35.31-30.46,22.91-64.17,36.5-99.29,39.63l-12.84,1.15-9.9,.88h5.45c-1.77,.27-3.59,.4-5.45,.4-21.51,0-38.94-17.44-38.94-38.94s17.44-38.94,38.94-38.94c1.09,0,2.17,.04,3.24,.15l15.22-1.77c39.28-4.57,77.4-33.1,107.39-80.33,36.58-57.65,56.73-135.12,56.73-218.1V0h77.13Z"/><path class="cls-1" d="M420.68,0V20.88c0,97.43-24.41,189.58-68.74,259.42-7.75,12.22-15.97,23.53-24.64,33.95-2.05,2.46-4.11,4.87-6.2,7.2-10.8,12.17-22.22,22.95-34.14,32.3-31.53,24.72-66.61,39.4-103.25,42.64l-22.74,2.03H38.94l9.9-.88,12.84-1.15c35.12-3.13,68.82-16.73,99.29-39.63,13.36-10,26.1-21.82,38.09-35.31,2.71-3.03,5.37-6.16,7.98-9.38,29.25-11.88,56.9-37.04,79.79-73.1,36.58-57.65,56.73-135.12,56.73-218.1V0h77.13Z"/><path class="cls-2" d="M546.66,0V20.88c0,97.43-24.41,189.58-68.74,259.42-7.2,11.36-14.85,21.97-22.86,31.78-2.63,3.22-5.28,6.35-8,9.38-11.96,13.51-24.7,25.31-38.07,35.33-30.49,22.89-64.17,36.5-99.31,39.61l-22.72,2.03h-125.99l22.74-2.03c36.65-3.24,71.73-17.92,103.25-42.64,11.92-9.35,23.34-20.13,34.14-32.3,2.09-2.34,4.16-4.74,6.2-7.2,31.38-10.86,61.14-36.88,85.49-75.27,36.6-57.65,56.75-135.12,56.75-218.1V0h77.11Z"/><path class="cls-1" d="M668.7,0V20.88c0,97.43-24.43,189.58-68.76,259.42-7.66,12.09-15.83,23.3-24.39,33.64-2.13,2.57-4.28,5.07-6.47,7.52-10.96,12.36-22.57,23.32-34.72,32.78-31.34,24.43-66.23,38.94-102.65,42.16l-22.72,2.03h-122.03l22.72-2.03c35.14-3.11,68.82-16.73,99.31-39.61,13.36-10.02,26.1-21.82,38.07-35.33,2.71-3.03,5.37-6.16,8-9.38,29.27-11.9,56.9-37.04,79.76-73.1,36.6-57.65,56.75-135.12,56.75-218.1V0h77.13Z"/><path class="cls-2" d="M794.07,0V20.88c0,97.43-24.43,189.58-68.76,259.42-7.2,11.36-14.83,21.95-22.84,31.76-14.24,17.48-29.69,32.43-46.08,44.71-30.49,22.91-64.17,36.5-99.31,39.63l-22.72,2.03h-125.37l22.72-2.03c36.42-3.22,71.31-17.73,102.65-42.16,12.15-9.46,23.76-20.42,34.72-32.78,2.19-2.44,4.34-4.95,6.47-7.52,31.07-11,60.49-36.92,84.63-74.96,36.6-57.65,56.75-135.12,56.75-218.1V0h77.13Z"/><path class="cls-1" d="M916.1,0V20.88c0,97.43-24.41,189.58-68.76,259.42-43.85,69.14-103.61,110.38-168.24,116.1l-22.72,2.03h-122.03l22.72-2.03c35.14-3.13,68.82-16.73,99.31-39.63,16.39-12.28,31.84-27.23,46.08-44.71,29.25-11.9,56.88-37.04,79.74-73.08,36.6-57.65,56.75-135.12,56.75-218.1V0h77.13Z"/></g></g></svg>