<?xml version="1.0" encoding="UTF-8"?>
<svg id="Ebene_2" xmlns="http://www.w3.org/2000/svg" viewBox="0 0 421.74 153.46">
    <g id="Ebene_1-2">
        <path d="M399.68,0V14.84c-1.9,60.44-49.59,110.64-109.4,116.12v-19.05c26-25.86,40.88-60.13,41.94-96.7,.04-1.4,.06-2.8,.06-4.21V0h-64V102.33c-18.93,16.28-42.68,26.34-67.46,28.63v-18.94c27.16-26.96,42.1-62.76,42.1-101.02V0h-22.06V14.84c-.7,22.27-7.74,44.13-20.04,62.69V0h-22V102.42c-18.91,16.23-42.63,26.26-67.36,28.54v-19.05c26-25.86,40.88-60.13,41.94-96.7,.04-1.4,.06-2.8,.06-4.21V0H89.46V102.33c-18.93,16.28-42.68,26.34-67.46,28.63V0H0V153.46H11c27.73,0,55.3-8.34,78.46-23.61v23.61h11c27.69,0,55.22-8.32,78.36-23.55v23.55h11c27.73,0,55.3-8.34,78.46-23.61v23.61h11c78.55,0,142.46-63.91,142.46-142.46V0h-22.06ZM111.46,77.41V22h19.5c-1.81,19.93-8.48,38.82-19.5,55.41Zm178.82,0V22h19.5c-1.81,19.93-8.48,38.82-19.5,55.41Z" />
    </g>
</svg>