<?xml version="1.0" encoding="UTF-8"?>
<svg id="Ebene_2" xmlns="http://www.w3.org/2000/svg" viewBox="0 0 342.1 125.46">
    <defs>
        <style>.cls-1{fill:#ff03ed;}</style>
    </defs>
    <g id="Ebene_1-2">
        <path class="cls-1" d="M322.74,0V12.75c-1.52,48.13-39.28,88.15-86.8,92.93v-14.22c20.99-20.99,33-48.76,33.86-78.38,.03-1.14,.05-2.28,.05-3.42V0h-53.22V83.05c-14.91,12.72-33.51,20.66-52.93,22.62v-14.13c21.94-21.89,34-50.9,34-81.89V0h-19.35V12.75c-.54,16.97-5.67,33.63-14.64,48.01V0h-19.31V83.12c-14.89,12.68-33.46,20.59-52.85,22.55v-14.21c20.99-20.99,33-48.76,33.86-78.38,.03-1.14,.05-2.28,.05-3.42V0h-53.22V83.05c-14.91,12.72-33.5,20.66-52.93,22.62V0H0V125.46H9.65c22.07,0,44.01-6.5,62.59-18.42v18.42h9.65c22.03,0,43.95-6.48,62.51-18.37v18.37h9.65c22.07,0,44.01-6.5,62.59-18.42v18.42h9.65c63.86,0,115.81-51.95,115.81-115.81V0h-19.35Zm-86.8,60.67V19.31h14.13c-1.47,14.79-6.29,28.84-14.13,41.36Zm-144.4,0V19.31h14.13c-1.47,14.79-6.29,28.84-14.13,41.36Z" />
    </g>
</svg>