<?xml version="1.0" encoding="UTF-8"?><svg id="Ebene_2" xmlns="http://www.w3.org/2000/svg" viewBox="0 0 413.74 145.46"><defs><style>.cls-1{fill:#0a0a0a;}</style></defs><g id="Ebene_1-2"><path class="cls-1" d="M399.68,0V10.91c-2,64.5-53.3,116.79-117.4,120.36v-25.03c26.01-25.27,40.89-59.01,41.94-95.15,.04-1.36,.06-2.72,.06-4.09V0h-56V100.15c-20.96,18.58-47.6,29.55-75.46,31.12v-24.93c27.16-26.34,42.1-61.56,42.1-99.34V0h-14.06V10.91c-.85,27.38-10.75,53.64-28.04,74.78V0h-14V100.24c-20.94,18.52-47.55,29.47-75.36,31.03v-25.03c26.01-25.27,40.89-59.01,41.94-95.15,.04-1.36,.06-2.72,.06-4.09V0h-56V100.15c-20.96,18.58-47.6,29.55-75.46,31.12V0H0V145.46H7c29.66,0,58.7-9.65,82.46-27.29v27.29h7c29.62,0,58.62-9.63,82.36-27.22v27.22h7c29.66,0,58.7-9.65,82.46-27.29v27.29h7c76.35,0,138.46-62.11,138.46-138.46V0h-14.06Zm-117.4,85.56V14h27.81c-1.47,26.19-11.23,51.24-27.81,71.56Zm-178.82,0V14h27.81c-1.47,26.19-11.23,51.24-27.81,71.56Z"/></g></svg>