<?xml version="1.0" encoding="UTF-8"?>
<svg id="Ebene_2" xmlns="http://www.w3.org/2000/svg" viewBox="0 0 405.28 147.67">
    <defs>
        <style>.cls-1{fill:#fff;}</style>
    </defs>
    <g id="Ebene_1-2">
        <path class="cls-1" d="M383.78,0V14.41c-1.83,57.89-47.46,105.99-104.73,111.33v-18.05c24.97-24.85,39.25-57.78,40.27-92.92,.04-1.35,.06-2.69,.06-4.05V0h-61.77V98.35c-18.1,15.54-40.79,25.17-64.46,27.39v-17.95c26.08-25.91,40.43-60.31,40.43-97.07V0h-21.5V14.41c-.67,21.18-7.31,41.96-18.92,59.67V0h-21.44V98.43c-18.08,15.5-40.73,25.09-64.36,27.31v-18.05c24.97-24.85,39.25-57.78,40.27-92.92,.04-1.35,.06-2.69,.06-4.05V0h-61.77V98.35c-18.1,15.54-40.78,25.17-64.46,27.39V0H0V147.67H10.72c26.56,0,52.96-7.96,75.18-22.54v22.54h10.72c26.52,0,52.89-7.94,75.08-22.48v22.48h10.72c26.56,0,52.96-7.96,75.18-22.54v22.54h10.72c75.52,0,136.95-61.44,136.95-136.95V0h-21.5ZM107.34,73.96V21.44h18.39c-1.75,18.87-8.03,36.77-18.39,52.52Zm171.71,0V21.44h18.39c-1.74,18.87-8.03,36.77-18.39,52.52Z" />
    </g>
</svg>