<?xml version="1.0" encoding="UTF-8"?><svg id="Ebene_2" xmlns="http://www.w3.org/2000/svg" viewBox="0 0 334.1 117.46"><defs><style>.cls-1{fill:#ff03ed;}</style></defs><g id="Ebene_1-2"><path class="cls-1" d="M322.74,0V8.81c-1.61,52.08-43.04,94.31-94.8,97.19v-20.21c21-20.41,33.02-47.65,33.87-76.83,.03-1.1,.05-2.2,.05-3.3V0h-45.22V80.87c-16.93,15-38.44,23.86-60.93,25.13v-20.13c21.93-21.27,34-49.71,34-80.22V0h-11.35V8.81c-.69,22.11-8.68,43.31-22.64,60.39V0h-11.31V80.94c-16.91,14.96-38.4,23.79-60.85,25.06v-20.21c21-20.41,33.02-47.65,33.87-76.83,.03-1.1,.05-2.2,.05-3.3V0h-45.22V80.87c-16.93,15-38.44,23.86-60.93,25.13V0H0V117.46H5.65c23.95,0,47.4-7.79,66.59-22.04v22.04h5.65c23.92,0,47.34-7.77,66.51-21.98v21.98h5.65c23.95,0,47.4-7.79,66.59-22.04v22.04h5.65c61.65,0,111.81-50.16,111.81-111.81V0h-11.35Zm-94.8,69.09V11.31h22.45c-1.19,21.15-9.07,41.37-22.45,57.79Zm-144.4,0V11.31h22.45c-1.19,21.15-9.07,41.37-22.45,57.79Z"/></g></svg>